<svg width="64" height="21" viewBox="0 0 64 21" fill="none" xmlns="http://www.w3.org/2000/svg">
<path d="M59.9383 14.8846V19.5C59.9383 19.7761 59.7144 20 59.4383 20H1.5C1.22386 20 1 19.7761 1 19.5V1.5C1 1.22386 1.22386 1 1.5 1H59.4383C59.7144 1 59.9383 1.22386 59.9383 1.5V6.84615M59.9383 14.8846H62.5C62.7761 14.8846 63 14.6608 63 14.3846V7.34615C63 7.07001 62.7761 6.84615 62.5 6.84615H59.9383M59.9383 14.8846V6.84615M23.9403 16.4112L23.7263 17.0239C23.5646 17.487 24.097 17.8817 24.4932 17.5925L34.9719 9.94229C35.3626 9.65703 35.1608 9.03846 34.6771 9.03846H33.1343C32.7771 9.03846 32.5351 8.67471 32.6732 8.34525L33.895 5.429C33.9073 5.39949 33.9228 5.37139 33.9411 5.34516V5.34516C34.231 4.93 33.7212 4.42619 33.3095 4.72099L24.4636 11.055C24.0683 11.338 24.2685 11.9615 24.7547 11.9615H26.0657C26.47 11.9615 26.7071 12.4164 26.4756 12.7478L24.0024 16.2897C23.9762 16.3272 23.9553 16.368 23.9403 16.4112Z" stroke="white" stroke-linecap="round"/>
</svg>
