<svg width="880" height="74" viewBox="0 0 880 74" fill="none" xmlns="http://www.w3.org/2000/svg">
<path d="M37.8668 35.9548C43.633 36.8606 47.9927 38.8814 50.9461 42.017C53.8995 45.0829 55.3762 49.194 55.3762 54.3503C55.3762 60.6215 53.126 65.3945 48.6256 68.6695C44.1252 71.9444 37.4097 73.5819 28.4792 73.5819H0L8.68751e-06 0.41808H26.3696C34.175 0.41808 40.2928 2.02072 44.7229 5.22599C49.153 8.43126 51.3681 13.0301 51.3681 19.0226C51.3681 23.4124 50.1726 27.0358 47.7818 29.8927C45.3909 32.7495 42.0859 34.7702 37.8668 35.9548ZM0 3.55368V19.2316V34.9096H26.4751C33.2961 34.9096 38.57 33.5857 42.2969 30.9379C46.0238 28.2203 47.8873 24.3183 47.8873 19.2316C47.8873 14.145 46.0238 10.2778 42.2969 7.62994C38.57 4.91243 33.2961 3.55368 26.4751 3.55368H0ZM28.6902 70.4463C36.3549 70.4463 42.1211 69.1224 45.9886 66.4746C49.8562 63.8267 51.79 59.7505 51.79 54.2458C51.79 48.6714 49.8562 44.5603 45.9886 41.9124C42.1211 39.2646 36.3549 37.9407 28.6902 37.9407H0V70.4463H28.6902Z" fill="white"/>
<path d="M79.7418 0.41808H83.328V70.3418H126.574V73.5819H79.7418V0.41808Z" fill="white"/>
<path d="M190.706 52.1554H146.511L136.596 73.5819H132.693L166.868 0.41808H170.349L204.524 73.5819H200.621L190.706 52.1554ZM189.335 49.1243L168.661 4.49435L147.882 49.1243L146.511 52.1554H190.706L189.335 49.1243Z" fill="white"/>
<path d="M252.677 74C245.505 74 239 72.3974 233.164 69.1921C227.397 65.9868 222.862 61.5621 219.557 55.9181C216.252 50.274 214.599 43.968 214.599 37C214.599 30.032 216.252 23.726 219.557 18.0819C222.862 12.4379 227.397 8.01318 233.164 4.80791C239 1.60264 245.505 0 252.677 0C257.74 0 262.487 0.83616 266.917 2.50848C271.347 4.11112 275.144 6.51507 278.308 9.72034L276.093 12.0198C269.976 6.16667 262.205 3.24011 252.783 3.24011C246.313 3.24011 240.442 4.73823 235.168 7.73446C229.894 10.661 225.745 14.7025 222.721 19.8588C219.697 25.0151 218.186 30.7288 218.186 37C218.186 43.2712 219.697 48.9849 222.721 54.1412C225.745 59.2976 229.894 63.3738 235.168 66.3701C240.442 69.2966 246.313 70.7599 252.783 70.7599C262.135 70.7599 269.905 67.7985 276.093 61.8757L278.308 64.1751C275.144 67.3804 271.347 69.8192 266.917 71.4915C262.557 73.1638 257.81 74 252.677 74Z" fill="white"/>
<path d="M322.703 36.2684L305.088 54.2458V73.5819H301.502V0.41808H305.088V49.6469L353.398 0.41808H357.828L325.129 33.8644L360.148 73.5819H355.718L322.703 36.2684Z" fill="white"/>
<path d="M440.754 74C433.582 74 427.077 72.3974 421.241 69.1921C415.475 65.9868 410.939 61.5621 407.634 55.9181C404.329 50.274 402.677 43.968 402.677 37C402.677 30.032 404.329 23.726 407.634 18.0819C410.939 12.4379 415.475 8.01318 421.241 4.80791C427.077 1.60264 433.582 0 440.754 0C445.817 0 450.564 0.83616 454.994 2.50848C459.424 4.11112 463.221 6.51507 466.386 9.72034L464.171 12.0198C458.053 6.16667 450.283 3.24011 440.86 3.24011C434.391 3.24011 428.519 4.73823 423.245 7.73446C417.971 10.661 413.822 14.7025 410.799 19.8588C407.775 25.0151 406.263 30.7288 406.263 37C406.263 43.2712 407.775 48.9849 410.799 54.1412C413.822 59.2976 417.971 63.3738 423.245 66.3701C428.519 69.2966 434.391 70.7599 440.86 70.7599C450.212 70.7599 457.983 67.7985 464.171 61.8757L466.386 64.1751C463.221 67.3804 459.424 69.8192 454.994 71.4915C450.634 73.1638 445.888 74 440.754 74Z" fill="white"/>
<path d="M532.873 52.1554H488.677L478.762 73.5819H474.859L509.034 0.41808H512.515L546.69 73.5819H542.788L532.873 52.1554ZM531.501 49.1243L510.828 4.49435L490.048 49.1243L488.677 52.1554H532.873L531.501 49.1243Z" fill="white"/>
<path d="M617.18 73.5819L598.933 48.3927C596.542 48.8107 593.87 49.0198 590.916 49.0198H568.871V73.5819H565.285V45.7797L596.927 45.4418L565.285 3.55368V0.41808H590.916C600.128 0.41808 607.301 2.57816 612.434 6.89831C617.638 11.1488 620.239 17.0716 620.239 24.6667C620.239 30.5198 618.692 35.4322 615.598 39.404C612.575 43.306 608.215 46.0235 602.519 47.5565L621.4 73.5819H617.18ZM591.127 45.7797C599.355 45.7797 605.683 43.968 610.113 40.3446C614.544 36.6516 616.759 31.4256 616.759 24.6667C616.759 17.9774 614.544 12.8211 610.113 9.19774C605.683 5.50471 599.355 3.65819 591.127 3.65819H568.871L600.762 44.7569L601.242 46.9769L596.927 45.4418L568.871 45.7797H591.127Z" fill="white"/>
<path d="M686.667 35.9548C692.433 36.8606 696.793 38.8814 699.746 42.017C702.7 45.0829 704.176 49.194 704.176 54.3503C704.176 60.6215 701.926 65.3945 697.426 68.6695C692.925 71.9444 686.21 73.5819 677.279 73.5819H648.8V0.41808H675.17C682.975 0.41808 689.093 2.02072 693.523 5.22599C697.953 8.43126 700.168 13.0301 700.168 19.0226C700.168 23.4124 698.973 27.0358 696.582 29.8927C694.191 32.7495 690.886 34.7702 686.667 35.9548ZM648.8 3.55368V34.9096H675.275C682.096 34.9096 687.37 33.5857 691.097 30.9379C694.824 28.2203 696.687 24.3183 696.687 19.2316C696.687 14.145 694.824 10.2778 691.097 7.62994C687.37 4.91243 682.096 3.55368 675.275 3.55368H648.8ZM677.49 70.4463C685.155 70.4463 690.921 69.1224 694.789 66.4746C698.656 63.8267 700.59 59.7505 700.59 54.2458C700.59 48.6714 698.656 44.5603 694.789 41.9124C690.921 39.2646 685.155 37.9407 677.49 37.9407H648.8V70.4463H677.49Z" fill="white"/>
<path d="M759.131 74C751.958 74 745.454 72.3974 739.617 69.1921C733.851 65.9868 729.315 61.5621 726.01 55.9181C722.705 50.274 721.053 43.968 721.053 37C721.053 30.032 722.705 23.726 726.01 18.0819C729.315 12.4379 733.851 8.01318 739.617 4.80791C745.454 1.60264 751.958 0 759.131 0C766.303 0 772.808 1.60264 778.644 4.80791C784.481 8.01318 789.051 12.4379 792.356 18.0819C795.661 23.726 797.314 30.032 797.314 37C797.314 43.968 795.661 50.274 792.356 55.9181C789.051 61.5621 784.481 65.9868 778.644 69.1921C772.808 72.3974 766.303 74 759.131 74ZM759.131 70.7599C765.6 70.7599 771.472 69.2966 776.746 66.3701C782.02 63.4435 786.168 59.4021 789.192 54.2458C792.216 49.0895 793.728 43.3409 793.728 37C793.728 30.6591 792.216 24.9105 789.192 19.7542C786.168 14.5979 782.02 10.5565 776.746 7.62994C771.472 4.70339 765.6 3.24011 759.131 3.24011C752.661 3.24011 746.79 4.70339 741.516 7.62994C736.312 10.5565 732.198 14.5979 729.175 19.7542C726.151 24.9105 724.639 30.6591 724.639 37C724.639 43.3409 726.151 49.0895 729.175 54.2458C732.198 59.4021 736.312 63.4435 741.516 66.3701C746.79 69.2966 752.661 70.7599 759.131 70.7599Z" fill="white"/>
<path d="M880 0.41808V73.5819H877.047L824.624 6.89831V73.5819H821.038V0.41808H823.991L876.414 67.1017V0.41808H880Z" fill="white"/>
</svg>
