<svg width="1197" height="1045" viewBox="0 0 1197 1045" fill="none" xmlns="http://www.w3.org/2000/svg">
<g filter="url(#filter0_f)">
<circle cx="598.5" cy="446.5" r="98.5" fill="white"/>
</g>
<rect x="419" y="334" width="360" height="222" rx="10" fill="#1C1A1A"/>
<path d="M544 417H551.953C556.609 417 560.922 417.297 562.562 417.656C564.219 418.016 565.562 418.938 566.594 420.422C567.641 421.891 568.164 424.242 568.164 427.477C568.164 430.43 567.797 432.414 567.062 433.43C566.328 434.445 564.883 435.055 562.727 435.258C564.68 435.742 565.992 436.391 566.664 437.203C567.336 438.016 567.75 438.766 567.906 439.453C568.078 440.125 568.164 441.992 568.164 445.055V455.062H559V442.453C559 440.422 558.836 439.164 558.508 438.68C558.195 438.195 557.359 437.953 556 437.953V455.062L544 454.945V417ZM556 423.609V432.047C557.109 432.047 557.883 431.898 558.32 431.602C558.773 431.289 559 430.297 559 428.625V426.539C559 425.336 558.781 424.547 558.344 424.172C557.922 423.797 557.141 423.609 556 423.609Z" fill="white"/>
<path d="M579.484 417H598V424.898H590V432.047H598V439.453H590V454.945H579.484V417Z" fill="white"/>
<path d="M618 417V454.945H607.249V417H618Z" fill="white"/>
<path d="M628 417H638.5C643.266 417 646.484 417.219 648.156 417.656C649.844 418.094 651.125 418.812 652 419.812C652.875 420.812 653.422 421.93 653.641 423.164C653.859 424.383 653.969 426.789 653.969 430.383V443.672C653.969 447.078 653.805 449.359 653.477 450.516C653.164 451.656 652.609 452.555 651.812 453.211C651.016 453.852 650.031 454.305 648.859 454.57C647.688 454.82 645.922 454.945 643.562 454.945H628V435.973V417ZM639 423.492V448.453C640.422 448.453 643.281 448.172 643.609 447.609C643.938 447.031 644.102 445.477 644.102 442.945V428.203C644.102 426.484 644.047 425.383 643.938 424.898C643.828 424.414 643.578 424.062 643.188 423.844C642.797 423.609 640.078 423.492 639 423.492Z" fill="white"/>
<path d="M545.492 460.514H547.953C548.73 460.514 549.318 460.574 549.717 460.695C550.119 460.816 550.443 461.062 550.689 461.434C550.936 461.801 551.059 462.395 551.059 463.215C551.059 463.77 550.971 464.156 550.795 464.375C550.623 464.594 550.281 464.762 549.77 464.879C550.34 465.008 550.727 465.223 550.93 465.523C551.133 465.82 551.234 466.277 551.234 466.895V467.773C551.234 468.414 551.16 468.889 551.012 469.197C550.867 469.506 550.635 469.717 550.314 469.83C549.994 469.943 549.338 470 548.346 470H545.492V460.514ZM547.959 462.137V464.246C548.064 464.242 548.146 464.24 548.205 464.24C548.447 464.24 548.602 464.182 548.668 464.064C548.734 463.943 548.768 463.602 548.768 463.039C548.768 462.742 548.74 462.535 548.686 462.418C548.631 462.297 548.559 462.221 548.469 462.189C548.383 462.158 548.213 462.141 547.959 462.137ZM547.959 465.723V468.377C548.307 468.365 548.527 468.311 548.621 468.213C548.719 468.115 548.768 467.875 548.768 467.492V466.607C548.768 466.201 548.725 465.955 548.639 465.869C548.553 465.783 548.326 465.734 547.959 465.723Z" fill="white"/>
<path d="M557.292 460.514V468.102H558.792V470H554.825V460.514H557.292Z" fill="white"/>
<path d="M567.545 466.068C567.545 467.021 567.521 467.697 567.474 468.096C567.431 468.49 567.291 468.852 567.052 469.18C566.818 469.508 566.5 469.76 566.097 469.936C565.695 470.111 565.226 470.199 564.691 470.199C564.183 470.199 563.726 470.117 563.32 469.953C562.918 469.785 562.593 469.535 562.347 469.203C562.101 468.871 561.955 468.51 561.908 468.119C561.861 467.729 561.837 467.045 561.837 466.068V464.445C561.837 463.492 561.859 462.818 561.902 462.424C561.949 462.025 562.089 461.662 562.324 461.334C562.562 461.006 562.882 460.754 563.285 460.578C563.687 460.402 564.156 460.314 564.691 460.314C565.199 460.314 565.654 460.398 566.056 460.566C566.462 460.73 566.789 460.979 567.035 461.311C567.281 461.643 567.427 462.004 567.474 462.395C567.521 462.785 567.545 463.469 567.545 464.445V466.068ZM565.078 462.951C565.078 462.51 565.052 462.229 565.002 462.107C564.955 461.982 564.855 461.92 564.703 461.92C564.574 461.92 564.474 461.971 564.404 462.072C564.337 462.17 564.304 462.463 564.304 462.951V467.381C564.304 467.932 564.326 468.271 564.369 468.4C564.416 468.529 564.521 468.594 564.685 468.594C564.853 468.594 564.961 468.52 565.007 468.371C565.054 468.223 565.078 467.869 565.078 467.311V462.951Z" fill="white"/>
<path d="M576.93 464.65H574.463V462.998C574.463 462.518 574.436 462.219 574.381 462.102C574.33 461.98 574.215 461.92 574.036 461.92C573.832 461.92 573.704 461.992 573.649 462.137C573.594 462.281 573.567 462.594 573.567 463.074V467.48C573.567 467.941 573.594 468.242 573.649 468.383C573.704 468.523 573.827 468.594 574.018 468.594C574.202 468.594 574.321 468.523 574.375 468.383C574.434 468.242 574.463 467.912 574.463 467.393V466.203H576.93V466.572C576.93 467.553 576.86 468.248 576.719 468.658C576.582 469.068 576.276 469.428 575.799 469.736C575.327 470.045 574.743 470.199 574.047 470.199C573.325 470.199 572.729 470.068 572.26 469.807C571.791 469.545 571.481 469.184 571.329 468.723C571.176 468.258 571.1 467.561 571.1 466.631V463.859C571.1 463.176 571.123 462.664 571.17 462.324C571.217 461.98 571.356 461.65 571.586 461.334C571.821 461.018 572.143 460.77 572.553 460.59C572.967 460.406 573.442 460.314 573.977 460.314C574.704 460.314 575.303 460.455 575.776 460.736C576.248 461.018 576.559 461.369 576.707 461.791C576.856 462.209 576.93 462.861 576.93 463.748V464.65Z" fill="white"/>
<path d="M586.392 460.514L584.98 464.797L586.527 470H583.978L582.982 465.934V470H580.515V460.514H582.982V464.199L584.077 460.514H586.392Z" fill="white"/>
<path d="M592.127 460.514V470H589.66V460.514H592.127Z" fill="white"/>
<path d="M601.325 460.514V470H599.163L597.88 465.688V470H595.817V460.514H597.88L599.263 464.785V460.514H601.325Z" fill="white"/>
<path d="M610.681 464.006H608.214V463.145C608.214 462.602 608.191 462.262 608.144 462.125C608.097 461.988 607.986 461.92 607.81 461.92C607.658 461.92 607.554 461.979 607.5 462.096C607.445 462.213 607.418 462.514 607.418 462.998V467.551C607.418 467.977 607.445 468.258 607.5 468.395C607.554 468.527 607.664 468.594 607.828 468.594C608.007 468.594 608.129 468.518 608.191 468.365C608.257 468.213 608.291 467.916 608.291 467.475V466.35H607.793V464.908H610.681V470H609.129L608.9 469.32C608.732 469.613 608.519 469.834 608.261 469.982C608.007 470.127 607.707 470.199 607.359 470.199C606.945 470.199 606.556 470.1 606.193 469.9C605.834 469.697 605.56 469.447 605.373 469.15C605.185 468.854 605.068 468.543 605.021 468.219C604.974 467.891 604.951 467.4 604.951 466.748V463.93C604.951 463.023 605 462.365 605.097 461.955C605.195 461.545 605.474 461.17 605.935 460.83C606.4 460.486 607 460.314 607.734 460.314C608.457 460.314 609.056 460.463 609.533 460.76C610.009 461.057 610.32 461.41 610.464 461.82C610.609 462.227 610.681 462.818 610.681 463.596V464.006Z" fill="white"/>
<path d="M624.923 464.65H622.456V462.998C622.456 462.518 622.429 462.219 622.374 462.102C622.323 461.98 622.208 461.92 622.029 461.92C621.825 461.92 621.696 461.992 621.642 462.137C621.587 462.281 621.56 462.594 621.56 463.074V467.48C621.56 467.941 621.587 468.242 621.642 468.383C621.696 468.523 621.82 468.594 622.011 468.594C622.195 468.594 622.314 468.523 622.368 468.383C622.427 468.242 622.456 467.912 622.456 467.393V466.203H624.923V466.572C624.923 467.553 624.853 468.248 624.712 468.658C624.575 469.068 624.269 469.428 623.792 469.736C623.32 470.045 622.736 470.199 622.04 470.199C621.318 470.199 620.722 470.068 620.253 469.807C619.784 469.545 619.474 469.184 619.321 468.723C619.169 468.258 619.093 467.561 619.093 466.631V463.859C619.093 463.176 619.116 462.664 619.163 462.324C619.21 461.98 619.349 461.65 619.579 461.334C619.814 461.018 620.136 460.77 620.546 460.59C620.96 460.406 621.435 460.314 621.97 460.314C622.696 460.314 623.296 460.455 623.769 460.736C624.241 461.018 624.552 461.369 624.7 461.791C624.849 462.209 624.923 462.861 624.923 463.748V464.65Z" fill="white"/>
<path d="M632.768 460.514L634.18 470H631.654L631.531 468.295H630.646L630.5 470H627.945L629.199 460.514H632.768ZM631.461 466.613C631.336 465.539 631.211 464.213 631.086 462.635C630.836 464.447 630.68 465.773 630.617 466.613H631.461Z" fill="white"/>
<path d="M637.302 460.514H639.048C640.212 460.514 640.999 460.559 641.409 460.648C641.823 460.738 642.159 460.969 642.417 461.34C642.679 461.707 642.809 462.295 642.809 463.104C642.809 463.842 642.718 464.338 642.534 464.592C642.35 464.846 641.989 464.998 641.45 465.049C641.938 465.17 642.266 465.332 642.434 465.535C642.602 465.738 642.706 465.926 642.745 466.098C642.788 466.266 642.809 466.732 642.809 467.498V470H640.518V466.848C640.518 466.34 640.477 466.025 640.395 465.904C640.317 465.783 640.108 465.723 639.768 465.723V470H637.302V460.514ZM639.768 462.137V464.246C640.046 464.246 640.239 464.209 640.348 464.135C640.462 464.057 640.518 463.809 640.518 463.391V462.869C640.518 462.568 640.464 462.371 640.354 462.277C640.249 462.184 640.054 462.137 639.768 462.137Z" fill="white"/>
<path d="M646.47 460.514H648.316C649.507 460.514 650.312 460.568 650.73 460.678C651.152 460.787 651.472 460.967 651.691 461.217C651.91 461.467 652.046 461.746 652.101 462.055C652.156 462.359 652.183 462.961 652.183 463.859V467.182C652.183 468.033 652.142 468.604 652.06 468.893C651.982 469.178 651.843 469.402 651.644 469.566C651.445 469.727 651.199 469.84 650.906 469.906C650.613 469.969 650.171 470 649.582 470H646.47V460.514ZM648.937 462.137V468.377C649.293 468.377 649.511 468.307 649.593 468.166C649.675 468.021 649.716 467.633 649.716 467V463.314C649.716 462.885 649.703 462.609 649.675 462.488C649.648 462.367 649.586 462.279 649.488 462.225C649.39 462.166 649.207 462.137 648.937 462.137Z" fill="white"/>
<path d="M599 516.2L571 501L599 509.4L627 501L599 516.2Z" fill="white"/>
<path d="M599 523.8L584.288 510.595L599 518.575L613.712 510.595L599 523.8Z" fill="white"/>
<path d="M599 526.175L589.983 518.1L599 531.9L608.017 518.1L599 526.175Z" fill="white"/>
<path d="M599 534.25L594.729 527.362L599 541L603.271 527.362L599 534.25Z" fill="white"/>
<defs>
<filter id="filter0_f" x="0" y="-152" width="1197" height="1197" filterUnits="userSpaceOnUse" color-interpolation-filters="sRGB">
<feFlood flood-opacity="0" result="BackgroundImageFix"/>
<feBlend mode="normal" in="SourceGraphic" in2="BackgroundImageFix" result="shape"/>
<feGaussianBlur stdDeviation="250" result="effect1_foregroundBlur"/>
</filter>
</defs>
</svg>
