<svg width="12" height="20" viewBox="0 0 12 20" fill="none" xmlns="http://www.w3.org/2000/svg">
<path d="M7.41221 20H4.02645C3.46092 20 3.00089 19.5648 3.00089 19.0298V12.2C3.00089 12.0895 2.91134 12 2.80089 12H1C0.43447 12 0 11.3704 0 10.8356V7.74002C0 7.20505 0.460037 6.76987 1.02557 6.76987H2.80089C2.91134 6.76987 3.00089 6.68032 3.00089 6.56987V5.21973C3.00089 3.68271 3.51109 2.37503 4.47617 1.43829C5.4456 0.497284 6.80039 0 8.39406 0L10.9762 0.00396727C11.5408 0.00488281 12 0.440063 12 0.974121V3.84827C12 4.38324 11.5401 4.81842 10.9748 4.81842L9.23623 4.81903C8.70602 4.81903 8.57101 4.91959 8.54214 4.95041C8.49456 5.00153 8.43794 5.14603 8.43794 5.54504V6.56971C8.43794 6.68017 8.52748 6.76971 8.63794 6.76971H10.8441C11.0252 6.76971 11.2007 6.81198 11.3516 6.89163C11.6769 7.0636 11.8792 7.38876 11.8792 7.74017L11.8779 10.8357C11.8779 11.3704 11.4179 11.8056 10.8523 11.8056H8.63794C8.52748 11.8056 8.43794 11.8951 8.43794 12.0056V19.0298C8.43794 19.5648 7.97774 20 7.41221 20ZM4.49932 18.3007C4.4997 18.4109 4.58913 18.5 4.69932 18.5H6.8C6.91046 18.5 7 18.4105 7 18.3V11C7 10.5 7.5 10 8 10H10.4396C10.55 10 10.6396 9.91046 10.6396 9.8V8.47654C10.6396 8.36608 10.55 8.27654 10.4396 8.27654H8C7.5 8.27654 7 8 7 7.5V5.54504C7 5.08698 7.13449 4.39154 7.5 4C7.94165 3.52667 8.75103 3.3093 9.23623 3.3093H9.80032C9.91078 3.3093 10.0003 3.21976 10.0003 3.1093V1.63829C10.0003 1.52784 9.91078 1.43829 9.80032 1.43829H8.39342C5.83224 1.43829 4.47617 3 4.47617 4.95041V7.5C4.47617 8 4 8.5 3.5 8.5H1.7C1.58954 8.5 1.5 8.58954 1.5 8.7V10.4331C1.5 10.5435 1.58954 10.6331 1.7 10.6331H3.55577C4 10.6331 4.47617 11 4.47617 11.5L4.49932 18.3007Z" fill="white"/>
</svg>
