<svg width="1170" height="27" viewBox="0 0 1170 27" fill="none" xmlns="http://www.w3.org/2000/svg">
<path d="M437.856 13.1186C439.966 13.4492 441.561 14.1864 442.642 15.3305C443.722 16.4492 444.263 17.9492 444.263 19.8305C444.263 22.1186 443.439 23.8602 441.793 25.0551C440.146 26.25 437.689 26.8475 434.421 26.8475H424L424 0.152543H433.649C436.505 0.152543 438.744 0.737288 440.365 1.90678C441.986 3.07627 442.796 4.75424 442.796 6.94068C442.796 8.54237 442.359 9.86441 441.484 10.9068C440.609 11.9492 439.4 12.6864 437.856 13.1186ZM424 1.29661V7.01695V12.7373H433.687C436.183 12.7373 438.113 12.2542 439.477 11.2881C440.841 10.2966 441.522 8.87288 441.522 7.01695C441.522 5.16102 440.841 3.75 439.477 2.7839C438.113 1.79237 436.183 1.29661 433.687 1.29661H424ZM434.498 25.7034C437.303 25.7034 439.412 25.2203 440.828 24.2542C442.243 23.2881 442.95 21.8008 442.95 19.7924C442.95 17.7585 442.243 16.2585 440.828 15.2924C439.412 14.3263 437.303 13.8432 434.498 13.8432H424V25.7034H434.498Z" fill="white"/>
<path d="M453.178 0.152543H454.49V25.6653H470.315V26.8475H453.178V0.152543Z" fill="white"/>
<path d="M493.781 19.0297H477.61L473.982 26.8475H472.554L485.058 0.152543H486.332L498.837 26.8475H497.409L493.781 19.0297ZM493.279 17.9237L485.715 1.63983L478.111 17.9237L477.61 19.0297H493.781L493.279 17.9237Z" fill="white"/>
<path d="M516.457 27C513.832 27 511.452 26.4153 509.317 25.2458C507.207 24.0763 505.547 22.4619 504.338 20.4025C503.129 18.3432 502.524 16.0424 502.524 13.5C502.524 10.9576 503.129 8.65678 504.338 6.59746C505.547 4.53814 507.207 2.92373 509.317 1.75424C511.452 0.584746 513.832 0 516.457 0C518.309 0 520.046 0.305085 521.667 0.915256C523.288 1.5 524.678 2.37712 525.836 3.54661L525.025 4.38559C522.787 2.25 519.943 1.1822 516.495 1.1822C514.128 1.1822 511.98 1.72881 510.05 2.82203C508.12 3.88983 506.602 5.36441 505.496 7.24576C504.389 9.12712 503.836 11.2119 503.836 13.5C503.836 15.7881 504.389 17.8729 505.496 19.7542C506.602 21.6356 508.12 23.1229 510.05 24.2161C511.98 25.2839 514.128 25.8178 516.495 25.8178C519.918 25.8178 522.761 24.7373 525.025 22.5763L525.836 23.4153C524.678 24.5847 523.288 25.4746 521.667 26.0847C520.072 26.6949 518.335 27 516.457 27Z" fill="white"/>
<path d="M542.08 13.2331L535.635 19.7924V26.8475H534.322V0.152543H535.635V18.1144L553.311 0.152543H554.932L542.968 12.3559L555.782 26.8475H554.161L542.08 13.2331Z" fill="white"/>
<path d="M585.276 27C582.652 27 580.271 26.4153 578.136 25.2458C576.026 24.0763 574.366 22.4619 573.157 20.4025C571.948 18.3432 571.343 16.0424 571.343 13.5C571.343 10.9576 571.948 8.65678 573.157 6.59746C574.366 4.53814 576.026 2.92373 578.136 1.75424C580.271 0.584746 582.652 0 585.276 0C587.129 0 588.865 0.305085 590.486 0.915256C592.107 1.5 593.497 2.37712 594.655 3.54661L593.844 4.38559C591.606 2.25 588.763 1.1822 585.315 1.1822C582.947 1.1822 580.799 1.72881 578.869 2.82203C576.939 3.88983 575.421 5.36441 574.315 7.24576C573.209 9.12712 572.655 11.2119 572.655 13.5C572.655 15.7881 573.209 17.8729 574.315 19.7542C575.421 21.6356 576.939 23.1229 578.869 24.2161C580.799 25.2839 582.947 25.8178 585.315 25.8178C588.737 25.8178 591.58 24.7373 593.844 22.5763L594.655 23.4153C593.497 24.5847 592.107 25.4746 590.486 26.0847C588.891 26.6949 587.154 27 585.276 27Z" fill="white"/>
<path d="M618.983 19.0297H602.811L599.183 26.8475H597.755L610.26 0.152543H611.534L624.039 26.8475H622.611L618.983 19.0297ZM618.481 17.9237L610.916 1.63983L603.313 17.9237L602.811 19.0297H618.983L618.481 17.9237Z" fill="white"/>
<path d="M649.832 26.8475L643.155 17.6568C642.28 17.8093 641.302 17.8856 640.222 17.8856H632.155V26.8475H630.843V16.7034L642.421 16.5801L630.843 1.29661V0.152543H640.222C643.592 0.152543 646.217 0.940679 648.095 2.51695C649.999 4.0678 650.951 6.22881 650.951 9C650.951 11.1356 650.385 12.928 649.253 14.3771C648.147 15.8008 646.551 16.7924 644.467 17.3517L651.376 26.8475H649.832ZM640.299 16.7034C643.309 16.7034 645.625 16.0424 647.246 14.7203C648.867 13.3729 649.678 11.4661 649.678 9C649.678 6.55932 648.867 4.67797 647.246 3.35593C645.625 2.00848 643.309 1.33475 640.299 1.33475H632.155L643.824 16.3302L644 17.1402L642.421 16.5801L632.155 16.7034H640.299Z" fill="white"/>
<path d="M675.258 13.1186C677.368 13.4492 678.963 14.1864 680.044 15.3305C681.124 16.4492 681.665 17.9492 681.665 19.8305C681.665 22.1186 680.841 23.8602 679.194 25.0551C677.548 26.25 675.09 26.8475 671.823 26.8475H661.402V0.152543H671.051C673.907 0.152543 676.145 0.737288 677.766 1.90678C679.387 3.07627 680.198 4.75424 680.198 6.94068C680.198 8.54237 679.76 9.86441 678.886 10.9068C678.011 11.9492 676.801 12.6864 675.258 13.1186ZM661.402 1.29661V12.7373H671.089C673.585 12.7373 675.515 12.2542 676.879 11.2881C678.242 10.2966 678.924 8.87288 678.924 7.01695C678.924 5.16102 678.242 3.75 676.879 2.7839C675.515 1.79237 673.585 1.29661 671.089 1.29661H661.402ZM671.9 25.7034C674.704 25.7034 676.814 25.2203 678.23 24.2542C679.645 23.2881 680.352 21.8008 680.352 19.7924C680.352 17.7585 679.645 16.2585 678.23 15.2924C676.814 14.3263 674.704 13.8432 671.9 13.8432H661.402V25.7034H671.9Z" fill="white"/>
<path d="M701.773 27C699.148 27 696.768 26.4153 694.633 25.2458C692.523 24.0763 690.863 22.4619 689.654 20.4025C688.444 18.3432 687.84 16.0424 687.84 13.5C687.84 10.9576 688.444 8.65678 689.654 6.59746C690.863 4.53814 692.523 2.92373 694.633 1.75424C696.768 0.584746 699.148 0 701.773 0C704.397 0 706.777 0.584746 708.913 1.75424C711.049 2.92373 712.721 4.53814 713.93 6.59746C715.14 8.65678 715.744 10.9576 715.744 13.5C715.744 16.0424 715.14 18.3432 713.93 20.4025C712.721 22.4619 711.049 24.0763 708.913 25.2458C706.777 26.4153 704.397 27 701.773 27ZM701.773 25.8178C704.14 25.8178 706.289 25.2839 708.218 24.2161C710.148 23.1483 711.666 21.6737 712.773 19.7924C713.879 17.911 714.432 15.8136 714.432 13.5C714.432 11.1864 713.879 9.08898 712.773 7.20763C711.666 5.32627 710.148 3.8517 708.218 2.7839C706.289 1.7161 704.14 1.1822 701.773 1.1822C699.406 1.1822 697.257 1.7161 695.327 2.7839C693.423 3.8517 691.918 5.32627 690.812 7.20763C689.705 9.08898 689.152 11.1864 689.152 13.5C689.152 15.8136 689.705 17.911 690.812 19.7924C691.918 21.6737 693.423 23.1483 695.327 24.2161C697.257 25.2839 699.406 25.8178 701.773 25.8178Z" fill="white"/>
<path d="M746 0.152543V26.8475H744.919L725.737 2.51695V26.8475H724.425V0.152543H725.506L744.688 24.483V0.152543H746Z" fill="white"/>
<path d="M770 17C819.5 12.2778 1170 12 1170 12C1170 12 820 12.2778 770 7V17Z" fill="white"/>
<path d="M400 17C350.5 12.2778 0 12 0 12C0 12 350 12.2778 400 7V17Z" fill="white"/>
</svg>
