<svg width="20" height="20" viewBox="0 0 20 20" fill="none" xmlns="http://www.w3.org/2000/svg">
<path d="M13.8776 1.79858C15.0683 1.79858 16.2328 2.08317 17.0748 2.92517C17.9168 3.76717 18.2014 4.93168 18.2014 6.12245V10V13.8776C18.2014 15.0683 17.9168 16.2328 17.0748 17.0748C16.2328 17.9168 15.0003 18.1633 13.8095 18.1633L6.12245 18.2014C4.93168 18.2014 4.31139 17.9168 3.46939 17.0748C2.62739 16.2328 1.79858 15.0683 1.79858 13.8776L1.83673 10V6.19048C1.83673 4.99971 2.08317 3.76717 2.92517 2.92517C3.76717 2.08317 4.99971 1.83673 6.19048 1.83673L13.8776 1.79858ZM13.8776 0H6.12245C4.50016 0.00484508 2.94571 0.651443 1.79858 1.79858C0.651443 2.94571 0.00484508 4.50016 0 6.12245V13.8776C0.00484508 15.4998 0.651443 17.0543 1.79858 18.2014C2.94571 19.3486 4.50016 19.9952 6.12245 20H13.8776C15.4998 19.9952 17.0543 19.3486 18.2014 18.2014C19.3486 17.0543 19.9952 15.4998 20 13.8776V6.12245C19.9952 4.50016 19.3486 2.94571 18.2014 1.79858C17.0543 0.651443 15.4998 0.00484508 13.8776 0Z" fill="white"/>
<path d="M13.5 10C13.5 11.933 11.933 13.5 10 13.5C8.067 13.5 6.5 11.933 6.5 10C6.5 8.067 8.067 6.5 10 6.5C11.933 6.5 13.5 8.067 13.5 10Z" stroke="white"/>
<path d="M15 4C14.8022 4 14.6089 4.05865 14.4444 4.16853C14.28 4.27841 14.1518 4.43459 14.0761 4.61732C14.0004 4.80004 13.9806 5.00111 14.0192 5.19509C14.0578 5.38907 14.153 5.56725 14.2929 5.70711C14.4327 5.84696 14.6109 5.9422 14.8049 5.98078C14.9989 6.01937 15.2 5.99957 15.3827 5.92388C15.5654 5.84819 15.7216 5.72002 15.8315 5.55557C15.9414 5.39112 16 5.19778 16 5C16 4.86868 15.9741 4.73864 15.9239 4.61732C15.8736 4.49599 15.8 4.38575 15.7071 4.29289C15.6142 4.20003 15.504 4.12637 15.3827 4.07612C15.2614 4.02587 15.1313 4 15 4Z" fill="white"/>
</svg>
