<svg width="72" height="51" viewBox="0 0 72 51" fill="none" xmlns="http://www.w3.org/2000/svg">
<path d="M59.25 25.1231L50.4035 30.31C50.3042 30.3682 50.1879 30.3904 50.0742 30.3728L32.2949 27.6235C31.8139 27.5491 31.7119 26.9012 32.1468 26.6826L39.6098 22.932C39.7011 22.8861 39.8042 22.8693 39.9053 22.8838L54.1515 24.9294C54.6122 24.9956 54.7406 25.6002 54.3464 25.8478L49.6634 28.7897C49.5582 28.8557 49.4323 28.8803 49.3101 28.8586L38.4691 26.9357C37.9743 26.8479 37.9036 26.1669 38.3699 25.9795L40.5 25.1231M2.51551 41.2625L52.3206 49.9686C52.4365 49.9889 52.5558 49.9677 52.6575 49.9086L70.7493 39.4176C71.1601 39.1794 71.0386 38.5564 70.5684 38.49L24.1294 31.926C24.0446 31.914 23.958 31.924 23.8782 31.9551L2.4203 40.304C1.94861 40.4875 2.01693 41.1753 2.51551 41.2625ZM52.3212 34.8923L1.68328 26.167C1.19104 26.0822 1.1137 25.4075 1.57398 25.2135L23.1194 16.132C23.2048 16.096 23.2985 16.0844 23.39 16.0986L70.6007 23.399C71.0668 23.4711 71.1831 24.0891 70.7751 24.3257L52.6569 34.8321C52.5555 34.8909 52.4367 34.9122 52.3212 34.8923ZM2.42245 9.37374L23.1302 1.04816C23.2088 1.01657 23.2941 1.00545 23.3781 1.01585L70.5238 6.84816C70.9994 6.90699 71.1278 7.53652 70.7133 7.77691L52.6541 18.2491C52.5544 18.3069 52.4379 18.3285 52.3241 18.3103L2.52986 10.3314C2.02933 10.2512 1.95212 9.56284 2.42245 9.37374Z" stroke="white" stroke-linecap="round"/>
</svg>
