<svg width="63" height="60" viewBox="0 0 63 60" fill="none" xmlns="http://www.w3.org/2000/svg">
<path d="M28.6317 32.8691L34.0431 27.1205C34.2244 26.928 34.2244 26.6276 34.0431 26.4351L26.6777 18.6107C26.4014 18.3172 26.5801 17.8344 26.9802 17.7851C42.8328 15.8339 44.6529 27.3512 43.5195 33.7386C43.4875 33.9192 43.5536 34.1005 43.695 34.2174L57.1152 45.3056C65.0016 52.3944 54.0819 61.4167 48.0154 54.9722L35.3028 42.262C35.1904 42.1497 35.0242 42.0987 34.8669 42.1214C18.7997 44.4356 17.7517 32.8321 19.0294 25.9919C19.0992 25.6182 19.5477 25.4749 19.8324 25.7269L27.9362 32.9008C28.1385 33.0799 28.4465 33.0659 28.6317 32.8691Z" stroke="white" stroke-linecap="round"/>
<path d="M19.9578 15.5C38.0063 4.31579 53.0717 20.8601 49.6225 36.0632C49.5717 36.2868 49.6741 36.5199 49.8766 36.6275L53.5798 38.5944C53.8461 38.7358 54.176 38.6112 54.2822 38.329L55.4766 35.1571C55.55 34.9623 55.7364 34.8333 55.9445 34.8333H61.2374C61.4836 34.8333 61.6937 34.6545 61.7269 34.4106C62.2124 30.8413 61.9492 26.2703 61.7137 23.9974C61.6876 23.7452 61.474 23.5556 61.2204 23.5556H55.9158C55.7221 23.5556 55.5459 23.4437 55.4634 23.2685L52.7102 17.419C52.6227 17.2332 52.6578 17.0129 52.7985 16.8633L56.1236 13.3311C56.2643 13.1816 56.3004 12.9609 56.2069 12.7781C54.4018 9.25111 50.4357 6.39204 48.3482 5.21056C48.1521 5.09956 47.9083 5.14157 47.7538 5.30565L43.7395 9.57007C43.5793 9.74025 43.3226 9.77675 43.1213 9.65796L36.8866 5.97844C36.7342 5.88852 36.6407 5.72476 36.6407 5.54784V1.5C36.6407 1.22386 36.4168 1 36.1407 1H25.0077C24.7316 1 24.5077 1.22386 24.5077 1.5V7.09107C24.5077 7.30288 24.3743 7.4917 24.1746 7.5624L17.9606 9.76277C17.7892 9.82346 17.5984 9.78633 17.4623 9.66583L13.4577 6.1208C13.2714 5.95586 12.9922 5.95304 12.8025 6.11418L5.95074 11.9371C5.73273 12.1224 5.71435 12.4525 5.91046 12.6608L9.87731 16.8748C10.0126 17.0185 10.0507 17.2284 9.9745 17.4105L7.19496 24.0541C7.11716 24.2401 6.93529 24.3611 6.7337 24.3611H1.5C1.22386 24.3611 1 24.585 1 24.8611V34.3333C1 34.6095 1.22386 34.8333 1.5 34.8333H6.74923C6.9429 34.8333 7.11915 34.9452 7.20163 35.1204L9.95484 40.9699C10.0423 41.1557 10.0073 41.376 9.86652 41.5255L5.90648 45.7323C5.71187 45.939 5.72825 46.2661 5.94254 46.4524L13.5949 53.1035C13.7689 53.2547 14.0237 53.2673 14.2119 53.1341L18.2135 50.3002C18.355 50.1999 18.5384 50.1802 18.698 50.248L25.7199 53.2317C25.9045 53.3102 26.0243 53.4913 26.0243 53.6919V58.5C26.0243 58.7761 26.2482 59 26.5243 59H36.899C37.1752 59 37.399 58.7761 37.399 58.5V52.8864C37.399 52.6858 37.5189 52.5046 37.7035 52.4262L40.5303 51.225C40.8506 51.0889 40.9374 50.6755 40.6989 50.4221L37.6432 47.176C37.497 47.0208 37.2613 46.9791 37.0654 47.0632C17.5126 55.4508 2.61513 26.7141 19.9578 15.5Z" stroke="white" stroke-linecap="round"/>
</svg>
