<svg width="22" height="18" viewBox="0 0 22 18" fill="none" xmlns="http://www.w3.org/2000/svg">
<path d="M0.443279 16.2C2.50485 17.5016 4.74853 18 7.22575 18C10.8534 18 14.1777 16.6134 16.5872 14.096C18.8928 11.6866 20.1611 8.44908 20.098 5.16358C20.972 4.41952 22 2.99879 22 1.61406C22 1.08325 21.4211 0.7463 20.9516 1.01678C20.1305 1.49682 19.3818 1.62237 18.6117 1.40728C17.0391 -0.117769 14.6982 -0.439026 12.7257 0.618905C11.0019 1.54206 10.0435 3.23142 10.1298 5.07773C7.2174 4.72416 4.52678 3.27112 2.65077 1.01309C2.34275 0.644754 1.75823 0.688142 1.51329 1.10541C0.609619 2.64522 0.618897 4.42967 1.40474 5.87071C1.03084 5.93626 0.799818 6.24921 0.799818 6.588C0.799818 8.03643 1.45484 9.36761 2.50975 10.276C2.31306 10.4643 2.24811 10.744 2.33161 10.9933C2.79551 12.3799 3.84578 13.4636 5.15861 14.0064C3.73073 14.685 2.15162 14.9111 0.746006 14.7394C0.018612 14.6416 -0.344463 15.7026 0.443279 16.2ZM7.41595 14.2437C7.93644 13.8458 7.65996 13.0168 7.00679 13.003C5.85632 12.979 4.80883 12.4149 4.15659 11.5278C4.47111 11.5075 4.79677 11.4595 5.10666 11.3764C5.81271 11.1862 5.77931 10.1726 5.06212 10.0295C3.76042 9.76918 2.73892 8.82572 2.35574 7.61086C2.70551 7.69671 3.06179 7.74471 3.41714 7.75117C4.12133 7.75487 4.38761 6.85664 3.81331 6.48092C2.51903 5.63254 1.99385 4.55873 2.3594 3.15C4.61952 5.42834 7.25947 6.59491 10.5031 6.75C11.5765 6.80133 12.0422 6.29034 11.9402 5.85C11.4611 4.05 12.1385 2.91574 13.3773 2.25C14.5111 1.64072 16.1738 1.61406 17.2096 2.7C17.6243 3.1348 19.3864 2.95489 20.098 2.78965C19.619 3.68965 19.0314 3.68859 18.6467 4.05C18.2932 4.38207 18.3989 4.92633 18.411 5.16358C18.5604 8.19613 17.4227 10.8261 15.2934 13.05C13.1484 15.2905 10.6586 16.3905 7.41595 16.3905C6.12631 16.3905 4.99152 16.1525 3.79652 15.75C5.22533 15.4749 6.26362 15.1262 7.41595 14.2437Z" fill="white"/>
</svg>
