<svg width="30" height="30" viewBox="0 0 30 30" fill="none" xmlns="http://www.w3.org/2000/svg">
<path d="M25.5669 4.35654C22.7459 1.54884 18.9932 0.00160218 14.9993 0C11.0143 0 7.25566 1.54587 4.41617 4.35287C1.57164 7.16469 0.00366563 10.9014 0 14.8611V14.8656V14.8684C0.000435486 17.1462 0.569768 19.443 1.65332 21.5598C1.76286 21.7738 1.79863 22.0188 1.74693 22.2536L0.380046 28.4605C0.222364 29.1765 0.863294 29.8131 1.57824 29.6507L7.90234 28.2135C8.12884 28.1621 8.36564 28.1922 8.57557 28.2916C10.5713 29.2364 12.7735 29.7332 14.9936 29.734H14.9995C18.9839 29.734 22.7425 28.1879 25.5825 25.3807C28.4295 22.5666 29.9982 18.8347 30 14.8725C30.0011 10.9383 28.427 7.2036 25.5669 4.35654ZM15.0144 27.4414C13.0345 27.4405 11.0778 27.1354 9.32129 26.2665C9.11171 26.1628 8.87445 26.1251 8.64516 26.171L3 27.3C2.78477 27.3612 2.58697 27.1603 2.65143 26.946L4.22511 21.7151C4.30479 21.4503 4.27032 21.1648 4.1354 20.9233C3.09457 19.0608 2.25 16.9969 2.25 15C2.25435 8.09761 8.02522 2.25 14.9993 2.25C18.3685 2.25137 21.621 3.63245 24 6C26.415 8.40417 27.7511 11.6343 27.75 14.9414C27.7473 21.8454 21.9906 27.4414 15.0144 27.4414Z" fill="white"/>
<path d="M21 18.798C21 19.014 20.9519 19.236 20.8498 19.452C20.7476 19.668 20.6154 19.872 20.4412 20.064C20.1467 20.388 19.8222 20.622 19.4557 20.772C19.0951 20.922 18.7046 21 18.2839 21C17.671 21 17.016 20.856 16.325 20.562C15.634 20.268 14.9429 19.872 14.2579 19.374C13.5669 18.87 12.9119 18.312 12.2869 17.694C11.668 17.07 11.1092 16.416 10.6104 15.732C10.1177 15.048 9.72108 14.364 9.43265 13.686C9.14422 13.002 9 12.348 9 11.724C9 11.316 9.07211 10.926 9.21632 10.566C9.36054 10.2 9.58888 9.864 9.90736 9.564C10.2919 9.186 10.7126 9 11.1572 9C11.3255 9 11.4937 9.036 11.644 9.108C11.8002 9.18 11.9384 9.288 12.0466 9.444L13.4407 11.406C13.5488 11.556 13.6269 11.694 13.681 11.826C13.7351 11.952 13.7651 12.078 13.7651 12.192C13.7651 12.336 13.7231 12.48 13.639 12.618C13.5608 12.756 13.4467 12.9 13.3025 13.044L12.8458 13.518C12.7797 13.584 12.7496 13.662 12.7496 13.758C12.7496 13.806 12.7556 13.848 12.7677 13.896C12.7857 13.944 12.8037 13.98 12.8157 14.016C12.9239 14.214 13.1102 14.472 13.3746 14.784C13.645 15.096 13.9334 15.414 14.2459 15.732C14.5704 16.05 14.8828 16.344 15.2013 16.614C15.5138 16.878 15.7722 17.058 15.9765 17.166C16.0065 17.178 16.0426 17.196 16.0846 17.214C16.1327 17.232 16.1808 17.238 16.2349 17.238C16.337 17.238 16.4151 17.202 16.4812 17.136L16.9379 16.686C17.0881 16.536 17.2323 16.422 17.3706 16.35C17.5088 16.266 17.647 16.224 17.7972 16.224C17.9114 16.224 18.0315 16.248 18.1637 16.302C18.2959 16.356 18.4342 16.434 18.5844 16.536L20.5734 17.946C20.7296 18.054 20.8378 18.18 20.9039 18.33C20.9639 18.48 21 18.63 21 18.798Z" stroke="white" stroke-width="2" stroke-miterlimit="10"/>
</svg>
