<svg width="360" height="222" viewBox="0 0 360 222" fill="none" xmlns="http://www.w3.org/2000/svg">
<rect width="360" height="222" rx="10" fill="#1C1A1A"/>
<path d="M125 83H132.953C137.609 83 141.922 83.2969 143.562 83.6562C145.219 84.0156 146.562 84.9375 147.594 86.4219C148.641 87.8906 149.164 90.2422 149.164 93.4766C149.164 96.4297 148.797 98.4141 148.062 99.4297C147.328 100.445 145.883 101.055 143.727 101.258C145.68 101.742 146.992 102.391 147.664 103.203C148.336 104.016 148.75 104.766 148.906 105.453C149.078 106.125 149.164 107.992 149.164 111.055V121.062H140V108.453C140 106.422 139.836 105.164 139.508 104.68C139.195 104.195 138.359 103.953 137 103.953V121.062L125 120.945V83ZM137 89.6094V98.0469C138.109 98.0469 138.883 97.8984 139.32 97.6016C139.773 97.2891 140 96.2969 140 94.625V92.5391C140 91.3359 139.781 90.5469 139.344 90.1719C138.922 89.7969 138.141 89.6094 137 89.6094Z" fill="white"/>
<path d="M160.484 83H179V90.8984H171V98.0469H179V105.453H171V120.945H160.484V83Z" fill="white"/>
<path d="M199 83V120.945H188.249V83H199Z" fill="white"/>
<path d="M209 83H219.5C224.266 83 227.484 83.2188 229.156 83.6562C230.844 84.0938 232.125 84.8125 233 85.8125C233.875 86.8125 234.422 87.9297 234.641 89.1641C234.859 90.3828 234.969 92.7891 234.969 96.3828V109.672C234.969 113.078 234.805 115.359 234.477 116.516C234.164 117.656 233.609 118.555 232.812 119.211C232.016 119.852 231.031 120.305 229.859 120.57C228.688 120.82 226.922 120.945 224.562 120.945H209V101.973V83ZM220 89.4922V114.453C221.422 114.453 224.281 114.172 224.609 113.609C224.938 113.031 225.102 111.477 225.102 108.945V94.2031C225.102 92.4844 225.047 91.3828 224.938 90.8984C224.828 90.4141 224.578 90.0625 224.188 89.8438C223.797 89.6094 221.078 89.4922 220 89.4922Z" fill="white"/>
<path d="M126.492 126.514H128.953C129.73 126.514 130.318 126.574 130.717 126.695C131.119 126.816 131.443 127.062 131.689 127.434C131.936 127.801 132.059 128.395 132.059 129.215C132.059 129.77 131.971 130.156 131.795 130.375C131.623 130.594 131.281 130.762 130.77 130.879C131.34 131.008 131.727 131.223 131.93 131.523C132.133 131.82 132.234 132.277 132.234 132.895V133.773C132.234 134.414 132.16 134.889 132.012 135.197C131.867 135.506 131.635 135.717 131.314 135.83C130.994 135.943 130.338 136 129.346 136H126.492V126.514ZM128.959 128.137V130.246C129.064 130.242 129.146 130.24 129.205 130.24C129.447 130.24 129.602 130.182 129.668 130.064C129.734 129.943 129.768 129.602 129.768 129.039C129.768 128.742 129.74 128.535 129.686 128.418C129.631 128.297 129.559 128.221 129.469 128.189C129.383 128.158 129.213 128.141 128.959 128.137ZM128.959 131.723V134.377C129.307 134.365 129.527 134.311 129.621 134.213C129.719 134.115 129.768 133.875 129.768 133.492V132.607C129.768 132.201 129.725 131.955 129.639 131.869C129.553 131.783 129.326 131.734 128.959 131.723Z" fill="white"/>
<path d="M138.292 126.514V134.102H139.792V136H135.825V126.514H138.292Z" fill="white"/>
<path d="M148.545 132.068C148.545 133.021 148.521 133.697 148.474 134.096C148.431 134.49 148.291 134.852 148.052 135.18C147.818 135.508 147.5 135.76 147.097 135.936C146.695 136.111 146.226 136.199 145.691 136.199C145.183 136.199 144.726 136.117 144.32 135.953C143.918 135.785 143.593 135.535 143.347 135.203C143.101 134.871 142.955 134.51 142.908 134.119C142.861 133.729 142.837 133.045 142.837 132.068V130.445C142.837 129.492 142.859 128.818 142.902 128.424C142.949 128.025 143.089 127.662 143.324 127.334C143.562 127.006 143.882 126.754 144.285 126.578C144.687 126.402 145.156 126.314 145.691 126.314C146.199 126.314 146.654 126.398 147.056 126.566C147.462 126.73 147.789 126.979 148.035 127.311C148.281 127.643 148.427 128.004 148.474 128.395C148.521 128.785 148.545 129.469 148.545 130.445V132.068ZM146.078 128.951C146.078 128.51 146.052 128.229 146.002 128.107C145.955 127.982 145.855 127.92 145.703 127.92C145.574 127.92 145.474 127.971 145.404 128.072C145.337 128.17 145.304 128.463 145.304 128.951V133.381C145.304 133.932 145.326 134.271 145.369 134.4C145.416 134.529 145.521 134.594 145.685 134.594C145.853 134.594 145.961 134.52 146.007 134.371C146.054 134.223 146.078 133.869 146.078 133.311V128.951Z" fill="white"/>
<path d="M157.93 130.65H155.463V128.998C155.463 128.518 155.436 128.219 155.381 128.102C155.33 127.98 155.215 127.92 155.036 127.92C154.832 127.92 154.704 127.992 154.649 128.137C154.594 128.281 154.567 128.594 154.567 129.074V133.48C154.567 133.941 154.594 134.242 154.649 134.383C154.704 134.523 154.827 134.594 155.018 134.594C155.202 134.594 155.321 134.523 155.375 134.383C155.434 134.242 155.463 133.912 155.463 133.393V132.203H157.93V132.572C157.93 133.553 157.86 134.248 157.719 134.658C157.582 135.068 157.276 135.428 156.799 135.736C156.327 136.045 155.743 136.199 155.047 136.199C154.325 136.199 153.729 136.068 153.26 135.807C152.791 135.545 152.481 135.184 152.329 134.723C152.176 134.258 152.1 133.561 152.1 132.631V129.859C152.1 129.176 152.123 128.664 152.17 128.324C152.217 127.98 152.356 127.65 152.586 127.334C152.821 127.018 153.143 126.77 153.553 126.59C153.967 126.406 154.442 126.314 154.977 126.314C155.704 126.314 156.303 126.455 156.776 126.736C157.248 127.018 157.559 127.369 157.707 127.791C157.856 128.209 157.93 128.861 157.93 129.748V130.65Z" fill="white"/>
<path d="M167.392 126.514L165.98 130.797L167.527 136H164.978L163.982 131.934V136H161.515V126.514H163.982V130.199L165.077 126.514H167.392Z" fill="white"/>
<path d="M173.127 126.514V136H170.66V126.514H173.127Z" fill="white"/>
<path d="M182.325 126.514V136H180.163L178.88 131.688V136H176.817V126.514H178.88L180.263 130.785V126.514H182.325Z" fill="white"/>
<path d="M191.681 130.006H189.214V129.145C189.214 128.602 189.191 128.262 189.144 128.125C189.097 127.988 188.986 127.92 188.81 127.92C188.658 127.92 188.554 127.979 188.5 128.096C188.445 128.213 188.418 128.514 188.418 128.998V133.551C188.418 133.977 188.445 134.258 188.5 134.395C188.554 134.527 188.664 134.594 188.828 134.594C189.007 134.594 189.129 134.518 189.191 134.365C189.257 134.213 189.291 133.916 189.291 133.475V132.35H188.793V130.908H191.681V136H190.129L189.9 135.32C189.732 135.613 189.519 135.834 189.261 135.982C189.007 136.127 188.707 136.199 188.359 136.199C187.945 136.199 187.556 136.1 187.193 135.9C186.834 135.697 186.56 135.447 186.373 135.15C186.185 134.854 186.068 134.543 186.021 134.219C185.974 133.891 185.951 133.4 185.951 132.748V129.93C185.951 129.023 186 128.365 186.097 127.955C186.195 127.545 186.474 127.17 186.935 126.83C187.4 126.486 188 126.314 188.734 126.314C189.457 126.314 190.056 126.463 190.533 126.76C191.009 127.057 191.32 127.41 191.464 127.82C191.609 128.227 191.681 128.818 191.681 129.596V130.006Z" fill="white"/>
<path d="M205.923 130.65H203.456V128.998C203.456 128.518 203.429 128.219 203.374 128.102C203.323 127.98 203.208 127.92 203.029 127.92C202.825 127.92 202.696 127.992 202.642 128.137C202.587 128.281 202.56 128.594 202.56 129.074V133.48C202.56 133.941 202.587 134.242 202.642 134.383C202.696 134.523 202.82 134.594 203.011 134.594C203.195 134.594 203.314 134.523 203.368 134.383C203.427 134.242 203.456 133.912 203.456 133.393V132.203H205.923V132.572C205.923 133.553 205.853 134.248 205.712 134.658C205.575 135.068 205.269 135.428 204.792 135.736C204.32 136.045 203.736 136.199 203.04 136.199C202.318 136.199 201.722 136.068 201.253 135.807C200.784 135.545 200.474 135.184 200.321 134.723C200.169 134.258 200.093 133.561 200.093 132.631V129.859C200.093 129.176 200.116 128.664 200.163 128.324C200.21 127.98 200.349 127.65 200.579 127.334C200.814 127.018 201.136 126.77 201.546 126.59C201.96 126.406 202.435 126.314 202.97 126.314C203.696 126.314 204.296 126.455 204.769 126.736C205.241 127.018 205.552 127.369 205.7 127.791C205.849 128.209 205.923 128.861 205.923 129.748V130.65Z" fill="white"/>
<path d="M213.768 126.514L215.18 136H212.654L212.531 134.295H211.646L211.5 136H208.945L210.199 126.514H213.768ZM212.461 132.613C212.336 131.539 212.211 130.213 212.086 128.635C211.836 130.447 211.68 131.773 211.617 132.613H212.461Z" fill="white"/>
<path d="M218.302 126.514H220.048C221.212 126.514 221.999 126.559 222.409 126.648C222.823 126.738 223.159 126.969 223.417 127.34C223.679 127.707 223.809 128.295 223.809 129.104C223.809 129.842 223.718 130.338 223.534 130.592C223.35 130.846 222.989 130.998 222.45 131.049C222.938 131.17 223.266 131.332 223.434 131.535C223.602 131.738 223.706 131.926 223.745 132.098C223.788 132.266 223.809 132.732 223.809 133.498V136H221.518V132.848C221.518 132.34 221.477 132.025 221.395 131.904C221.317 131.783 221.108 131.723 220.768 131.723V136H218.302V126.514ZM220.768 128.137V130.246C221.046 130.246 221.239 130.209 221.348 130.135C221.462 130.057 221.518 129.809 221.518 129.391V128.869C221.518 128.568 221.464 128.371 221.354 128.277C221.249 128.184 221.054 128.137 220.768 128.137Z" fill="white"/>
<path d="M227.47 126.514H229.316C230.507 126.514 231.312 126.568 231.73 126.678C232.152 126.787 232.472 126.967 232.691 127.217C232.91 127.467 233.046 127.746 233.101 128.055C233.156 128.359 233.183 128.961 233.183 129.859V133.182C233.183 134.033 233.142 134.604 233.06 134.893C232.982 135.178 232.843 135.402 232.644 135.566C232.445 135.727 232.199 135.84 231.906 135.906C231.613 135.969 231.171 136 230.582 136H227.47V126.514ZM229.937 128.137V134.377C230.293 134.377 230.511 134.307 230.593 134.166C230.675 134.021 230.716 133.633 230.716 133V129.314C230.716 128.885 230.703 128.609 230.675 128.488C230.648 128.367 230.586 128.279 230.488 128.225C230.39 128.166 230.207 128.137 229.937 128.137Z" fill="white"/>
<path d="M180 182.2L152 167L180 175.4L208 167L180 182.2Z" fill="white"/>
<path d="M180 189.8L165.288 176.595L180 184.575L194.712 176.595L180 189.8Z" fill="white"/>
<path d="M180 192.175L170.983 184.1L180 197.9L189.017 184.1L180 192.175Z" fill="white"/>
<path d="M180 200.25L175.729 193.362L180 207L184.271 193.362L180 200.25Z" fill="white"/>
</svg>
