<svg width="382" height="259" viewBox="0 0 382 259" fill="none" xmlns="http://www.w3.org/2000/svg">
<rect x="23.4563" y="0.0524902" width="360" height="222" rx="10" transform="rotate(5.92322 23.4563 0.0524902)" fill="black"/>
<path d="M139.224 95.5085L147.134 96.3293C151.766 96.8098 156.025 97.5501 157.619 98.0769C159.23 98.6052 160.471 99.6609 161.344 101.244C162.233 102.813 162.511 105.206 162.178 108.423C161.873 111.36 161.303 113.296 160.468 114.23C159.632 115.165 158.132 115.622 155.966 115.601C157.859 116.285 159.097 117.065 159.682 117.943C160.266 118.82 160.601 119.609 160.685 120.309C160.787 120.995 160.68 122.861 160.364 125.907L159.331 135.861L150.216 134.916L151.517 122.374C151.727 120.353 151.693 119.085 151.417 118.57C151.156 118.056 150.349 117.728 148.997 117.588L147.232 134.606L135.308 133.251L139.224 95.5085ZM150.478 103.321L149.607 111.713C150.71 111.828 151.495 111.76 151.961 111.51C152.444 111.246 152.771 110.282 152.944 108.619L153.159 106.545C153.283 105.348 153.147 104.54 152.751 104.122C152.37 103.706 151.612 103.439 150.478 103.321Z" fill="white"/>
<path d="M174.518 99.1703L192.935 101.081L192.12 108.937L184.163 108.112L183.425 115.222L191.383 116.048L190.618 123.414L182.661 122.589L181.062 137.998L170.602 136.913L174.518 99.1703Z" fill="white"/>
<path d="M212.829 103.145L208.913 140.888L198.219 139.778L202.135 102.036L212.829 103.145Z" fill="white"/>
<path d="M222.775 104.177L233.219 105.261C237.959 105.752 241.138 106.302 242.756 106.91C244.389 107.519 245.59 108.366 246.357 109.451C247.124 110.536 247.553 111.704 247.643 112.954C247.735 114.189 247.595 116.594 247.224 120.168L245.853 133.386C245.501 136.774 245.103 139.027 244.657 140.143C244.229 141.245 243.584 142.081 242.724 142.652C241.865 143.207 240.839 143.556 239.646 143.699C238.455 143.827 236.686 143.769 234.339 143.526L218.859 141.92L220.817 123.048L222.775 104.177ZM233.047 111.77L230.471 136.597C231.885 136.744 234.758 136.759 235.143 136.234C235.529 135.693 235.852 134.163 236.113 131.645L237.635 116.982C237.812 115.272 237.871 114.171 237.813 113.678C237.754 113.185 237.541 112.809 237.175 112.551C236.811 112.278 234.119 111.881 233.047 111.77Z" fill="white"/>
<path d="M136.217 138.944L138.665 139.198C139.438 139.278 140.017 139.399 140.401 139.561C140.788 139.722 141.086 140.001 141.292 140.395C141.499 140.786 141.56 141.389 141.475 142.205C141.418 142.757 141.291 143.132 141.093 143.332C140.9 143.532 140.543 143.663 140.022 143.727C140.575 143.914 140.938 144.168 141.109 144.488C141.28 144.804 141.334 145.269 141.271 145.883L141.18 146.757C141.114 147.395 140.991 147.859 140.811 148.151C140.636 148.443 140.383 148.629 140.053 148.708C139.722 148.788 139.064 148.776 138.077 148.674L135.239 148.38L136.217 138.944ZM138.504 140.813L138.286 142.911C138.391 142.918 138.473 142.924 138.531 142.931C138.772 142.956 138.932 142.913 139.01 142.803C139.088 142.69 139.157 142.353 139.215 141.794C139.245 141.499 139.24 141.29 139.197 141.168C139.155 141.041 139.091 140.958 139.005 140.918C138.923 140.878 138.756 140.843 138.504 140.813ZM138.134 144.38L137.86 147.02C138.207 147.044 138.432 147.012 138.535 146.925C138.642 146.838 138.716 146.604 138.755 146.223L138.847 145.343C138.888 144.939 138.871 144.69 138.795 144.595C138.718 144.501 138.498 144.429 138.134 144.38Z" fill="white"/>
<path d="M147.954 140.162L147.171 147.709L148.663 147.864L148.467 149.752L144.522 149.343L145.5 139.907L147.954 140.162Z" fill="white"/>
<path d="M157.579 146.745C157.481 147.693 157.387 148.362 157.3 148.754C157.216 149.142 157.039 149.487 156.768 149.789C156.501 150.091 156.159 150.308 155.74 150.442C155.322 150.575 154.847 150.614 154.314 150.559C153.809 150.507 153.363 150.378 152.976 150.173C152.593 149.964 152.296 149.682 152.086 149.326C151.875 148.971 151.767 148.596 151.761 148.203C151.754 147.809 151.802 147.127 151.902 146.156L152.07 144.541C152.168 143.593 152.259 142.925 152.343 142.537C152.43 142.146 152.608 141.799 152.875 141.497C153.145 141.195 153.49 140.977 153.908 140.844C154.327 140.711 154.802 140.672 155.334 140.727C155.839 140.779 156.283 140.91 156.666 141.118C157.053 141.324 157.352 141.604 157.563 141.96C157.773 142.315 157.882 142.69 157.888 143.083C157.894 143.477 157.847 144.159 157.746 145.13L157.579 146.745ZM155.447 143.39C155.492 142.95 155.496 142.668 155.458 142.542C155.425 142.413 155.332 142.341 155.18 142.325C155.052 142.312 154.948 142.352 154.867 142.446C154.791 142.536 154.728 142.824 154.678 143.31L154.22 147.716C154.164 148.264 154.15 148.604 154.179 148.736C154.213 148.87 154.311 148.945 154.474 148.961C154.641 148.979 154.756 148.916 154.818 148.773C154.88 148.63 154.939 148.281 154.997 147.726L155.447 143.39Z" fill="white"/>
<path d="M167.061 146.303L164.607 146.048L164.778 144.405C164.827 143.927 164.831 143.627 164.788 143.505C164.75 143.379 164.642 143.307 164.463 143.288C164.261 143.267 164.126 143.326 164.056 143.464C163.987 143.602 163.928 143.91 163.878 144.388L163.423 148.771C163.376 149.229 163.372 149.531 163.412 149.677C163.452 149.822 163.567 149.905 163.757 149.925C163.94 149.944 164.066 149.886 164.134 149.752C164.207 149.618 164.27 149.293 164.324 148.776L164.447 147.593L166.9 147.847L166.862 148.214C166.761 149.19 166.619 149.874 166.437 150.267C166.259 150.661 165.917 150.987 165.411 151.245C164.909 151.503 164.312 151.596 163.621 151.524C162.902 151.45 162.323 151.258 161.884 150.95C161.444 150.641 161.173 150.249 161.069 149.775C160.965 149.297 160.961 148.596 161.057 147.671L161.343 144.914C161.414 144.234 161.49 143.728 161.572 143.395C161.654 143.058 161.826 142.744 162.088 142.453C162.353 142.162 162.7 141.949 163.126 141.812C163.557 141.672 164.038 141.63 164.571 141.685C165.293 141.76 165.875 141.962 166.316 142.29C166.758 142.619 167.03 143.001 167.134 143.436C167.239 143.867 167.245 144.523 167.154 145.405L167.061 146.303Z" fill="white"/>
<path d="M176.899 143.165L175.052 147.279L176.054 152.614L173.519 152.351L172.947 148.204L172.528 152.248L170.074 151.994L171.053 142.558L173.507 142.813L173.126 146.478L174.597 142.926L176.899 143.165Z" fill="white"/>
<path d="M182.603 143.756L181.624 153.192L179.171 152.938L180.15 143.502L182.603 143.756Z" fill="white"/>
<path d="M191.752 144.706L190.773 154.141L188.623 153.918L187.791 149.496L187.346 153.786L185.295 153.573L186.274 144.137L188.325 144.35L189.26 148.741L189.701 144.493L191.752 144.706Z" fill="white"/>
<path d="M200.698 149.145L198.244 148.89L198.333 148.033C198.389 147.493 198.401 147.153 198.369 147.012C198.336 146.871 198.232 146.792 198.058 146.774C197.906 146.758 197.797 146.805 197.731 146.916C197.664 147.027 197.606 147.324 197.556 147.805L197.086 152.334C197.042 152.757 197.04 153.04 197.081 153.182C197.121 153.319 197.223 153.397 197.386 153.414C197.565 153.432 197.693 153.369 197.771 153.224C197.853 153.079 197.917 152.787 197.962 152.348L198.078 151.229L197.583 151.178L197.732 149.744L200.605 150.042L200.08 155.107L198.535 154.947L198.378 154.247C198.181 154.521 197.946 154.719 197.674 154.84C197.407 154.957 197.1 154.998 196.754 154.962C196.343 154.919 195.966 154.78 195.626 154.545C195.289 154.305 195.043 154.029 194.887 153.714C194.731 153.399 194.647 153.078 194.633 152.751C194.621 152.42 194.648 151.93 194.715 151.281L195.006 148.478C195.1 147.576 195.216 146.926 195.356 146.529C195.495 146.131 195.812 145.787 196.305 145.496C196.803 145.202 197.417 145.093 198.148 145.169C198.866 145.243 199.447 145.453 199.891 145.797C200.334 146.142 200.607 146.526 200.708 146.948C200.81 147.367 200.821 147.963 200.74 148.737L200.698 149.145Z" fill="white"/>
<path d="M214.797 151.255L212.344 151.001L212.514 149.357C212.564 148.879 212.567 148.579 212.525 148.457C212.487 148.331 212.379 148.259 212.2 148.241C211.998 148.22 211.862 148.278 211.793 148.417C211.724 148.555 211.664 148.863 211.615 149.341L211.16 153.723C211.112 154.182 211.109 154.484 211.148 154.629C211.188 154.775 211.303 154.857 211.494 154.877C211.676 154.896 211.802 154.839 211.871 154.704C211.944 154.57 212.007 154.245 212.061 153.728L212.184 152.545L214.637 152.8L214.599 153.167C214.498 154.142 214.356 154.827 214.174 155.22C213.996 155.614 213.654 155.94 213.148 156.198C212.646 156.456 212.049 156.549 211.357 156.477C210.639 156.403 210.06 156.211 209.62 155.902C209.181 155.594 208.909 155.202 208.805 154.728C208.702 154.25 208.698 153.548 208.794 152.624L209.08 149.867C209.151 149.187 209.227 148.68 209.308 148.347C209.391 148.01 209.563 147.696 209.824 147.405C210.09 147.115 210.436 146.901 210.863 146.765C211.294 146.625 211.775 146.583 212.307 146.638C213.03 146.713 213.612 146.915 214.053 147.243C214.494 147.572 214.767 147.953 214.871 148.388C214.975 148.819 214.982 149.476 214.89 150.358L214.797 151.255Z" fill="white"/>
<path d="M223.027 147.95L223.453 157.532L220.941 157.271L220.994 155.562L220.114 155.471L219.792 157.152L217.251 156.888L219.478 147.582L223.027 147.95ZM221.098 153.883C221.084 152.801 221.097 151.469 221.135 149.887C220.7 151.664 220.407 152.967 220.259 153.795L221.098 153.883Z" fill="white"/>
<path d="M227.537 148.418L229.273 148.598C230.431 148.719 231.21 148.844 231.608 148.976C232.011 149.108 232.321 149.372 232.539 149.768C232.762 150.16 232.831 150.758 232.748 151.563C232.672 152.297 232.529 152.781 232.32 153.015C232.112 153.248 231.736 153.362 231.195 153.357C231.668 153.528 231.978 153.723 232.124 153.943C232.27 154.162 232.354 154.359 232.375 154.534C232.4 154.706 232.373 155.172 232.294 155.934L232.036 158.422L229.757 158.186L230.083 155.05C230.135 154.545 230.127 154.228 230.058 154.099C229.992 153.971 229.791 153.889 229.453 153.854L229.011 158.108L226.558 157.854L227.537 148.418ZM229.823 150.287L229.605 152.385C229.881 152.414 230.077 152.397 230.194 152.334C230.314 152.268 230.396 152.027 230.439 151.612L230.493 151.093C230.524 150.794 230.49 150.592 230.391 150.487C230.296 150.383 230.106 150.317 229.823 150.287Z" fill="white"/>
<path d="M236.656 149.364L238.492 149.555C239.677 149.678 240.472 149.815 240.877 149.967C241.285 150.119 241.585 150.331 241.777 150.603C241.969 150.874 242.076 151.166 242.098 151.478C242.121 151.787 242.086 152.388 241.994 153.282L241.651 156.586C241.563 157.433 241.463 157.996 241.352 158.275C241.245 158.551 241.084 158.76 240.868 158.903C240.654 159.041 240.397 159.129 240.099 159.165C239.801 159.196 239.359 159.182 238.772 159.121L235.678 158.8L236.656 149.364ZM238.943 151.233L238.299 157.44C238.652 157.477 238.877 157.43 238.973 157.298C239.07 157.163 239.151 156.78 239.216 156.151L239.596 152.485C239.641 152.058 239.655 151.782 239.641 151.659C239.626 151.536 239.573 151.442 239.481 151.378C239.39 151.309 239.211 151.261 238.943 151.233Z" fill="white"/>
<path d="M183.693 199.855L157.411 181.846L184.395 193.091L213.112 187.625L183.693 199.855Z" fill="white"/>
<path d="M182.909 207.414L169.638 192.761L183.448 202.217L198.905 195.798L182.909 207.414Z" fill="white"/>
<path d="M182.664 209.776L174.528 200.814L182.073 215.471L192.466 202.675L182.664 209.776Z" fill="white"/>
<path d="M181.83 217.808L178.293 210.517L181.134 224.522L186.79 211.398L181.83 217.808Z" fill="white"/>
</svg>
